<?xml version="1.0" encoding="UTF-8"?><svg xmlns="http://www.w3.org/2000/svg" viewBox="0 0 24 24"><g id="a"><path d="M15,5h-6c-.55,0-1,.45-1,1v12c0,.55,.45,1,1,1h6c.55,0,1-.45,1-1V6c0-.55-.45-1-1-1Zm-3,6c-1.1,0-2-.9-2-2s.9-2,2-2,2,.9,2,2-.9,2-2,2Z" fill="#fff"/><path d="M19.2,7.36l-.72,.73c.88,.98,.88,2.47,0,3.45l.72,.73c1.25-1.4,1.25-3.51,0-4.9m1.41-1.43l-.72,.73c1.6,1.8,1.6,4.51,0,6.3l.72,.73c1.97-2.21,1.97-5.54,0-7.76m1.39-1.4l-.72,.73c1.12,1.25,1.74,2.87,1.73,4.55,0,1.68-.61,3.31-1.74,4.55l.72,.73c1.3-1.45,2.02-3.33,2.01-5.28,0-1.95-.71-3.83-2.01-5.28m-4.16,4.2l-.81,.82c-.14,.14-.14,.37,0,.51l.81,.82c.55-.61,.55-1.54,0-2.15m-13.1,3.49l.71-.72c-.86-.97-.86-2.43,0-3.39l-.71-.72c-1.23,1.37-1.23,3.45,0,4.83m-1.39,1.4l.71-.72c-1.57-1.77-1.57-4.43,0-6.2l-.71-.72c-1.94,2.17-1.94,5.46,0,7.63m-1.36,1.38l.71-.72c-1.1-1.23-1.71-2.82-1.71-4.48,0-1.65,.6-3.25,1.71-4.48l-.71-.72C.7,6.05,0,7.9,0,9.82c0,1.92,.7,3.77,1.98,5.19m4.09-4.14l.8-.81c.14-.14,.14-.36,0-.5l-.79-.8c-.54,.6-.54,1.51,0,2.11" fill="#fff"/></g><g id="b"/></svg>