<?xml version="1.0" encoding="UTF-8"?><svg xmlns="http://www.w3.org/2000/svg" viewBox="0 0 24 24"><g id="a"><path d="M9.95,7.46l.61,.6c.82-.73,2.06-.73,2.88,0l.61-.6c-1.17-1.04-2.93-1.04-4.1,0m-1.19-1.18l.61,.6c1.5-1.34,3.76-1.34,5.26,0l.61-.6c-1.85-1.65-4.63-1.65-6.48,0m-1.17-1.16l.61,.6c1.04-.94,2.4-1.45,3.8-1.45,1.4,0,2.76,.51,3.81,1.45l.61-.6c-1.21-1.09-2.78-1.69-4.41-1.68-1.63,0-3.2,.59-4.41,1.68m3.51,3.47l.68,.68c.12,.12,.31,.12,.43,0l.68-.67c-.51-.46-1.28-.46-1.79,0m3.9,1.85h-6c-.55,0-1,.45-1,1v6c0,.55,.45,1,1,1h6c.55,0,1-.45,1-1v-6c0-.55-.45-1-1-1Z" fill="#fff"/></g><g id="b"/></svg>