<?xml version="1.0" encoding="UTF-8"?><svg xmlns="http://www.w3.org/2000/svg" viewBox="0 0 24 24"><g id="a"><g><path d="M13.95,5.01l.61,.6c.82-.73,2.06-.73,2.88,0l.61-.6c-1.17-1.04-2.93-1.04-4.1,0m-1.19-1.18l.61,.6c1.5-1.34,3.76-1.34,5.26,0l.61-.6c-1.85-1.65-4.63-1.65-6.48,0m-1.17-1.16l.61,.6c1.04-.94,2.4-1.45,3.8-1.45,1.4,0,2.76,.51,3.81,1.45l.61-.6c-1.21-1.09-2.78-1.69-4.41-1.68-1.63,0-3.2,.59-4.41,1.68m3.51,3.47l.68,.68c.12,.12,.31,.12,.43,0l.68-.67c-.51-.46-1.28-.46-1.79,0" fill="#fff"/><path d="M19.88,11h-2.88v-3h-2v3H4.12c-.62,0-1.12,.45-1.12,1v6c0,.55,.51,1,1.12,1h15.75c.62,0,1.12-.45,1.12-1v-6c0-.55-.51-1-1.12-1Zm-13.88,5c-.55,0-1-.45-1-1s.45-1,1-1,1,.45,1,1-.45,1-1,1Zm4,0c-.55,0-1-.45-1-1s.45-1,1-1,1,.45,1,1-.45,1-1,1Zm4,0c-.55,0-1-.45-1-1s.45-1,1-1,1,.45,1,1-.45,1-1,1Z" fill="#fff"/></g></g><g id="b"/></svg>